<?xml version="1.0" encoding="UTF-8" standalone="no"?>
<!-- Created with Inkscape (http://www.inkscape.org/) -->

<svg
   width="210mm"
   height="297mm"
   viewBox="0 0 210 297"
   version="1.1"
   id="svg5"
   inkscape:version="1.1 (c68e22c387, 2021-05-23)"
   sodipodi:docname="Zeichnung_003.svg"
   xmlns:inkscape="http://www.inkscape.org/namespaces/inkscape"
   xmlns:sodipodi="http://sodipodi.sourceforge.net/DTD/sodipodi-0.dtd"
   xmlns="http://www.w3.org/2000/svg"
   xmlns:svg="http://www.w3.org/2000/svg">
  <sodipodi:namedview
     id="namedview7"
     pagecolor="#ffffff"
     bordercolor="#666666"
     borderopacity="1.0"
     inkscape:pageshadow="2"
     inkscape:pageopacity="0.0"
     inkscape:pagecheckerboard="0"
     inkscape:document-units="mm"
     showgrid="false"
     inkscape:zoom="0.54047838"
     inkscape:cx="160.04341"
     inkscape:cy="385.76936"
     inkscape:window-width="1920"
     inkscape:window-height="1017"
     inkscape:window-x="1672"
     inkscape:window-y="-8"
     inkscape:window-maximized="1"
     inkscape:current-layer="layer1" />
  <defs
     id="defs2" />
  <g
     inkscape:label="Ebene 1"
     inkscape:groupmode="layer"
     id="layer1">
    <path
       id="path5425"
       style="fill:#b5a79e;fill-opacity:1;stroke:#000000;stroke-width:0.666822;stroke-linecap:butt;stroke-linejoin:miter;stroke-miterlimit:4;stroke-dasharray:none;stroke-opacity:1"
       d="m 172.97125,126.27649 c -5.21826,2.88242 -11.66471,9.81632 -16.35859,13.38469 -8.16036,6.20367 -17.53519,11.20047 -27.41471,13.93394 -10.75472,2.97565 -33.395922,2.32859 -33.395922,2.32859 0,0 1.391238,3.96073 2.433013,8.10307 5.940089,-0.58783 11.405149,-1.18124 15.970159,-1.50157 14.09595,-0.9892 24.23664,-6.9245 34.25218,-13.10693 10.01556,-6.18244 24.23522,-22.5031 24.48256,-22.99769 z M 61.637561,153.55544 c -2.831762,0.0693 -0.833476,1.80729 -5.04771,2.80684 -3.589115,0.85131 -14.516255,-0.56323 -20.635685,-1.13819 -1.488158,-0.38573 -2.663533,-0.95248 -3.621323,-1.63524 l -0.04385,0.0961 c 0,0 3.648152,9.45992 24.668431,11.43827 9.321885,0.87736 18.858266,0.65795 27.819851,0.0584 -4.396277,-4.72013 -7.553825,-11.04983 -7.553825,-11.04983 0,0 -11.191377,-0.39306 -14.951,-0.56804 -0.234971,-0.0112 -0.446099,-0.0128 -0.634879,-0.008 z" />
    <path
       style="fill:#76736d;fill-opacity:1;stroke:#000000;stroke-width:0.666822;stroke-linecap:butt;stroke-linejoin:miter;stroke-miterlimit:4;stroke-dasharray:none;stroke-opacity:1"
       d="m 77.223537,154.13112 c 0,0 5.027387,10.09844 11.235128,14.29522 6.207701,4.19682 10.79794,3.62848 10.79794,3.62848 0.803695,-4.01859 -3.453612,-16.13134 -3.453612,-16.13134 0,0 22.640477,0.64675 33.395207,-2.3289 9.87951,-2.73349 19.254,-7.72994 27.41436,-13.93361 5.11929,-3.89176 12.32803,-11.80346 17.74884,-14.07671 5.42084,-2.27325 12.82527,-3.09701 14.77618,-3.58475 1.92352,-0.48088 1.39891,-2.62299 1.39891,-2.62299 -0.29501,-1.40434 -2.27325,-2.27322 -3.49733,-2.36067 -1.22405,-0.0872 -12.06571,1.57378 -15.7379,-0.52461 -3.67217,-2.09838 -3.98789,-9.48285 -5.42083,-13.3772 -1.00879,-3.245194 -4.21114,-5.881808 -6.20773,-5.94546 -1.49607,-0.04769 -2.15453,0.507392 -1.89259,2.772286 0.29865,2.582364 0.93083,28.310104 -1.42985,32.463154 -2.12589,3.74006 -7.47549,6.07659 -10.57936,6.81975 -5.35955,1.28329 -13.81287,0.003 -16.69968,-1.39891 -14.20765,-6.89932 -29.263379,-24.06905 -41.093434,-31.47581 -5.951844,-4.00464 -12.115978,-6.797853 -19.060375,-7.868976 -7.17342,-1.106433 -15.460229,-3.327678 -23.869146,0.437206 -6.095328,2.72898 -12.406523,6.52364 -16.000211,18.18602 -2.100573,6.81684 -3.538106,21.55037 -0.955555,29.66352 1.06971,3.36049 2.482518,7.06265 7.862747,8.45719 6.119429,0.57496 17.045023,1.98793 20.634138,1.13663 4.495182,-1.06619 1.923515,-2.97273 5.683134,-2.79787 3.759618,0.175 14.951019,0.56835 14.951019,0.56835 z"
       id="path73-1"
       sodipodi:nodetypes="csccasssscscssssscsssscssc" />
    <ellipse
       style="fill:#000000;stroke:#000000;stroke-width:0.666822;stroke-linecap:round;stroke-linejoin:round;stroke-miterlimit:4;stroke-dasharray:none"
       id="path6538"
       cx="60.171467"
       cy="142.18565"
       rx="2.0402038"
       ry="2.1020279" />
  </g>
</svg>
