<?xml version="1.0" encoding="UTF-8" standalone="no"?>
<!-- Created with Inkscape (http://www.inkscape.org/) -->

<svg
   width="210mm"
   height="297mm"
   viewBox="0 0 210 297"
   version="1.1"
   id="svg5"
   inkscape:version="1.1 (c68e22c387, 2021-05-23)"
   sodipodi:docname="Zeichnung_007.svg"
   xmlns:inkscape="http://www.inkscape.org/namespaces/inkscape"
   xmlns:sodipodi="http://sodipodi.sourceforge.net/DTD/sodipodi-0.dtd"
   xmlns="http://www.w3.org/2000/svg"
   xmlns:svg="http://www.w3.org/2000/svg">
  <sodipodi:namedview
     id="namedview7"
     pagecolor="#ffffff"
     bordercolor="#666666"
     borderopacity="1.0"
     inkscape:pageshadow="2"
     inkscape:pageopacity="0.0"
     inkscape:pagecheckerboard="0"
     inkscape:document-units="mm"
     showgrid="false"
     inkscape:zoom="0.76435185"
     inkscape:cx="907.30466"
     inkscape:cy="416.69291"
     inkscape:window-width="1920"
     inkscape:window-height="1017"
     inkscape:window-x="-8"
     inkscape:window-y="-8"
     inkscape:window-maximized="1"
     inkscape:current-layer="layer1" />
  <defs
     id="defs2" />
  <g
     inkscape:label="Ebene 1"
     inkscape:groupmode="layer"
     id="layer1">
    <path
       style="fill:#000000;stroke-width:0.264583"
       d="m 114.56625,164.18217 c 0.0885,-0.0885 -0.38963,-2.00978 -1.06248,-4.26956 -0.67284,-2.25978 -1.3272,-4.67835 -1.45413,-5.3746 -0.56348,-3.09072 -0.65418,-6.27431 0.69853,-8.93967 0.70139,-1.382 1.08069,-1.73231 1.69082,-2.86479 0.96022,-1.78227 1.32997,-2.24575 2.75063,-3.44793 2.07706,-1.75764 2.12146,-2.13419 0.3799,-3.22254 -0.63703,-0.39809 -1.26915,-0.83471 -1.4047,-0.97026 -0.23885,-0.2389 0.007,-1.71116 1.16268,-6.95021 0.30419,-1.3796 0.52811,-3.40526 0.49754,-4.5015 -0.0306,-1.09621 -0.004,-1.99313 0.0594,-1.99313 0.0633,-3e-5 0.65683,0.72429 1.31911,1.60953 0.6623,0.88526 1.47835,1.77371 1.81347,1.97435 1.01431,0.60731 3.23759,0.41307 4.70704,-0.41122 0.72512,-0.40676 2.05951,-0.92456 2.96529,-1.15066 0.90579,-0.22609 2.97698,-0.97008 4.60264,-1.65331 3.60859,-1.51658 4.70385,-1.7756 7.90242,-1.86883 2.85149,-0.0831 5.10094,0.49452 7.29973,1.87454 2.23404,1.40213 5.76416,4.37071 8.06668,6.78346 1.43205,1.50066 2.18299,2.14269 2.50794,2.14434 0.25511,0.001 0.46385,-0.0874 0.46384,-0.19713 4e-5,-0.10972 -1.66797,-1.96648 -3.70658,-4.12619 -3.42871,-3.63237 -12.24384,-11.68621 -14.10137,-12.88355 -0.80726,-0.52034 -1.37577,-0.19442 -2.35547,1.3507 -0.74641,1.17679 -0.8675,1.27414 -1.74938,1.4063 -0.52112,0.0781 -1.59487,0.39235 -2.38611,0.69835 -0.79123,0.30599 -1.68219,0.56141 -1.97989,0.56761 -3.13896,0.0654 -7.55228,0.85671 -8.15847,1.4629 -0.88682,0.88682 -1.43883,-0.38049 -2.53815,-5.82716 -0.57522,-2.84996 -0.96616,-5.26145 -0.86874,-5.35886 0.25951,-0.25952 0.28112,-0.20976 0.88366,2.0334 0.44867,1.67042 0.66765,2.10712 1.1669,2.3271 1.34507,0.59266 4.45182,-0.0374 6.43733,-1.30544 1.06241,-0.67851 1.12069,-0.76505 1.04564,-1.55251 -0.0437,-0.45868 -0.65686,-2.82883 -1.36258,-5.26698 -0.70573,-2.43816 -1.81389,-6.347258 -2.46261,-8.686891 -2.68693,-9.690698 -3.03524,-10.392132 -5.6846,-11.447674 -0.80431,-0.320452 -1.57938,-0.831329 -1.982,-1.306401 -0.63501,-0.749285 -0.6343,-0.819931 0.0178,-1.785022 0.98893,-1.463651 0.95531,-2.155407 -0.1475,-3.034811 -0.88488,-0.7056 -2.77401,-1.033822 -3.24417,-0.563654 -0.25695,0.256944 -0.33269,2.119176 -0.0958,2.356039 0.46442,0.464428 -0.49723,0.690751 -1.65315,0.389057 -1.59823,-0.417144 -1.84286,-0.64998 -1.27725,-1.215589 0.61534,-0.922246 0.59592,-2.059089 0.66998,-3.12032 0.0979,-1.402897 0.0196,-2.53253 -1.07711,-3.880157 -1.69719,-2.085482 -3.7386,-1.815778 -5.80245,-1.586871 -1.65568,0.183636 -2.95236,1.299505 -3.62734,3.149775 0.004,1.324284 -0.24527,1.897343 0.70467,2.61756 0.91313,0.69232 0.98517,0.819771 0.73563,1.301357 -0.19252,0.371578 -0.52258,0.541529 -1.08555,0.559126 -1.08537,0.03389 -1.8308,0.834202 -1.83081,1.965582 0,1.211188 0.72179,1.898191 1.94545,1.851693 0.73441,-0.02792 1.1248,-0.214877 1.58133,-0.75729 0.55177,-0.655576 0.64229,-0.675106 1.00866,-0.217382 0.5937,0.741773 0.729,1.377621 -0.1827,2.242292 0,0 -0.61926,1.915715 -1.21391,3.14018 0,0 -0.42095,1.473038 -0.55201,2.22629 -0.26787,1.539676 -0.5782,3.104911 -0.47492,4.6643 0.0721,1.089168 0.45236,2.137859 0.75847,3.185613 0.81158,2.678514 1.92633,5.267268 2.87865,7.679698 0.7982,2.02813 2.24727,3.95518 2.37159,6.09341 0.74001,3.25991 0.18113,6.74588 1.17019,9.86668 0.27402,0.83331 0.61825,2.15279 0.76494,2.93219 0.4239,2.25223 0.41883,11.74391 -0.007,13.73589 -0.21341,0.9975 -0.55074,2.79114 -0.74962,3.98585 -0.19888,1.1947 -0.55104,2.66173 -0.78256,3.26004 -0.62076,1.60422 -0.5569,10.67053 0.26995,13.01435 0.95376,2.7036 3.28357,7.76867 3.76334,7.28891 z m 2.23571,-84.892267 c -0.13903,-1.372901 0.65665,-1.879186 2.12042,-0.90334 0.89015,0.593437 1.03993,0.983505 0.35763,1.980922 -0.828,1.210419 -1.28952,0.804656 -1.83031,0.310585 -0.35816,-0.46914 -0.60462,-0.962022 -0.64774,-1.388167 z"
       id="path39"
       sodipodi:nodetypes="cssssssssssssssssssssssssscsssssssssssssssscssscsscssssssaaccccsssssccssscs" />
  </g>
</svg>
