<?xml version="1.0" encoding="UTF-8" standalone="no"?>
<!-- Created with Inkscape (http://www.inkscape.org/) -->

<svg
   version="1.1"
   id="svg938"
   xml:space="preserve"
   width="793.70135"
   height="1122.52"
   viewBox="0 0 793.70134 1122.52"
   sodipodi:docname="Zeichnung_003.svg"
   inkscape:version="1.1 (c68e22c387, 2021-05-23)"
   xmlns:inkscape="http://www.inkscape.org/namespaces/inkscape"
   xmlns:sodipodi="http://sodipodi.sourceforge.net/DTD/sodipodi-0.dtd"
   xmlns="http://www.w3.org/2000/svg"
   xmlns:svg="http://www.w3.org/2000/svg"><defs
     id="defs942"><inkscape:path-effect
       effect="simplify"
       id="path-effect2010"
       is_visible="true"
       lpeversion="1"
       steps="6"
       threshold="0.0019"
       smooth_angles="50"
       helper_size="5"
       simplify_individual_paths="false"
       simplify_just_coalesce="false" /><inkscape:path-effect
       effect="curvestitching"
       id="path-effect1989"
       is_visible="true"
       lpeversion="1"
       count="20"
       startpoint_edge_variation="0;1"
       startpoint_spacing_variation="0;1"
       endpoint_edge_variation="0;1"
       endpoint_spacing_variation="0;1"
       strokepath="M 0,0 H 1"
       prop_scale="1"
       scale_y_rel="false" /><inkscape:path-effect
       effect="sketch"
       id="path-effect1987"
       is_visible="true"
       lpeversion="1"
       nbiter_approxstrokes="5"
       strokelength="100"
       strokelength_rdm="0.3;1"
       strokeoverlap="0.3"
       strokeoverlap_rdm="0.3;1"
       ends_tolerance="0.1;1"
       parallel_offset="5;1"
       tremble_size="5;1"
       tremble_frequency="1"
       nbtangents="5"
       tgt_places_rdmness="1;1"
       tgtscale="10"
       tgtlength="100"
       tgtlength_rdm="0.3;1" /><inkscape:path-effect
       effect="interpolate_points"
       id="path-effect1985"
       is_visible="false"
       lpeversion="1"
       interpolator_type="CentripetalCatmullRom" /><clipPath
       clipPathUnits="userSpaceOnUse"
       id="clipPath954"><path
         d="M 12.852,15.625 H 583.813 V 586.586 H 12.852 Z"
         id="path952" /></clipPath><inkscape:path-effect
       effect="fill_between_many"
       method="originald"
       linkedpaths="#g960,0,1"
       id="path-effect1981"
       is_visible="true"
       lpeversion="0"
       join="true"
       close="true"
       autoreverse="true"
       applied="false" /></defs><sodipodi:namedview
     id="namedview940"
     pagecolor="#ffffff"
     bordercolor="#666666"
     borderopacity="1.0"
     inkscape:pageshadow="2"
     inkscape:pageopacity="0.0"
     inkscape:pagecheckerboard="0"
     showgrid="false"
     inkscape:zoom="2.9647578"
     inkscape:cx="425.1612"
     inkscape:cy="495.9933"
     inkscape:window-width="1920"
     inkscape:window-height="1017"
     inkscape:window-x="1672"
     inkscape:window-y="-8"
     inkscape:window-maximized="1"
     inkscape:current-layer="g944" /><g
     id="g944"
     inkscape:groupmode="layer"
     inkscape:label="Zeichnung_002_a"
     transform="matrix(1.3333333,0,0,1.3333333,0,3.3339633e-4)"><g
       id="g946" /><path
       inkscape:original-d="M 0,0"
       inkscape:path-effect="#path-effect1981"
       d="M 0,0"
       id="path1983" /><g
       id="g15560"
       transform="translate(-10.963601,7.1830038)"><g
         id="g1624"
         transform="matrix(1,0,0,-1,119.96538,840.83209)"><path
           d="m 280.11803,464.50991 c -12.95921,-4.99401 11.19204,-10.67919 2.26309,0.99378 -1.17909,1.54144 -3.99352,1.58157 -5.86662,-0.70283"
           style="fill:none;stroke:#000000;stroke-width:0.75;stroke-linecap:round;stroke-linejoin:round;stroke-miterlimit:10;stroke-dasharray:none;stroke-opacity:1"
           id="path1626"
           sodipodi:nodetypes="csc" /></g></g><path
       style="fill:none;stroke:#000000;stroke-width:0.75px;stroke-linecap:butt;stroke-linejoin:miter;stroke-opacity:1"
       d="m 383.13846,404.35879 c 0,0 13.36579,3.9872 20.26132,4.24295 6.51817,0.24176 13.27772,-1.6123 19.39701,-2.58096 4.56152,-0.72207 16.74046,-5.76949 15.06326,-1.93949 -0.84643,1.93287 -13.96775,10.68434 -28.75451,13.99962 -21.52141,5.08115 -48.54644,9.05404 -67.01876,7.90588 -10.35509,-0.76228 -20.44593,-3.95863 -30.29466,-7.24672 -5.31017,-1.77285 -9.94917,-4.45142 -15.40525,-6.68924 -10.19579,-3.74165 -20.89764,-10.40476 -27.50584,-14.7862 -5.56691,-3.7038 -10.59857,-6.12676 -17.83416,-10.05173 -4.02514,-2.38327 -8.18246,-1.05013 -11.30445,1.09099 -4.8644,3.3361 -4.83267,9.34654 -7.93057,15.8188 -2.92137,6.23338 -4.80272,12.01515 -11.22456,17.88966 -0.90171,0.54973 -2.09715,1.0884 -3.08591,0.7174 -1.65087,-0.61943 -2.63451,-1.56686 -3.0927,-4.29149 2.78731,-14.06325 10.37881,-22.65051 9.46152,-31.35566 -0.59173,-3.62726 -4.52821,-13.31483 -7.44281,-18.29699 -2.9146,-4.98216 -6.01208,-8.92399 -6.80415,-13.71487 -0.79207,-4.79088 -0.23326,-5.06079 1.20016,-6.23817 3.15078,-1.85556 6.67159,1.33175 8.51006,3.00638 2.03983,1.87462 5.06623,6.69256 7.17572,9.05695 2.10949,2.36439 4.09259,4.44743 5.67403,4.87141 1.58144,0.42398 3.63502,-0.5304 4.80689,-1.48626 1.17187,-0.95586 3.41681,-4.15932 11.68263,-11.11995 8.26582,-6.96063 18.29249,-12.70384 28.08632,-17.76586 9.79383,-5.06202 17.44221,-8.69794 30.4419,-12.5161 12.99969,-3.81816 33.3635,-7.33901 46.62487,-9.78498 13.26137,-2.44597 21.6356,-3.02259 30.49345,-4.44412 8.85785,-1.42154 15.62842,-1.79492 20.74934,-1.55554 5.12091,0.23938 8.39749,0.38316 12.3982,1.97403 4.00071,1.59087 8.18275,4.03647 12.12279,9.18891 3.94004,5.15244 6.81649,13.58004 9.29868,21.73872 2.48218,8.15869 5.74535,17.76843 7.3374,24.9987 1.59205,7.23027 4.53046,12.39586 2.38492,18.62965 -2.45217,7.70563 -4.13882,8.07412 -11.20072,9.75741 -7.0619,1.68328 -17.16531,4.0092 -27.12647,6.46209 -9.96117,2.45289 -29.44649,1.9955 -27.14495,4.51478 z"
       id="path2045"
       sodipodi:nodetypes="sassccacccaccacczzcczzzzzzzzzzzzzczzs" /><ellipse
       style="fill:#000000;stroke-width:3.51026;stroke-linecap:round;stroke-linejoin:round"
       id="path15893"
       cx="390.49741"
       cy="386.50134"
       rx="1.1377794"
       ry="1.1921757" /></g></svg>
