<?xml version="1.0" encoding="UTF-8" standalone="no"?>
<!-- Created with Inkscape (http://www.inkscape.org/) -->

<svg
   width="210mm"
   height="297mm"
   viewBox="0 0 210 297"
   version="1.1"
   id="svg5"
   inkscape:version="1.1 (c68e22c387, 2021-05-23)"
   sodipodi:docname="Zeichnung_005.svg"
   xmlns:inkscape="http://www.inkscape.org/namespaces/inkscape"
   xmlns:sodipodi="http://sodipodi.sourceforge.net/DTD/sodipodi-0.dtd"
   xmlns="http://www.w3.org/2000/svg"
   xmlns:svg="http://www.w3.org/2000/svg">
  <sodipodi:namedview
     id="namedview7"
     pagecolor="#ffffff"
     bordercolor="#666666"
     borderopacity="1.0"
     inkscape:pageshadow="2"
     inkscape:pageopacity="0"
     inkscape:pagecheckerboard="0"
     inkscape:document-units="mm"
     showgrid="false"
     inkscape:zoom="0.76435185"
     inkscape:cx="552.75591"
     inkscape:cy="598.54634"
     inkscape:window-width="1920"
     inkscape:window-height="1017"
     inkscape:window-x="1672"
     inkscape:window-y="-8"
     inkscape:window-maximized="1"
     inkscape:current-layer="layer1">
    <inkscape:grid
       type="xygrid"
       id="grid2416" />
  </sodipodi:namedview>
  <defs
     id="defs2" />
  <g
     inkscape:label="Ebene 1"
     inkscape:groupmode="layer"
     id="layer1">
    <rect
       style="fill:#00ff00;stroke-width:0.309006;stroke-linecap:round;stroke-linejoin:round"
       id="rect411"
       width="178.26923"
       height="168.23077"
       x="15.230769"
       y="73.384613" />
    <path
       id="rect43031"
       style="fill:#23659f;stroke-width:1.51181;stroke-linecap:round;stroke-linejoin:round"
       d="m 350.96289,439.1582 c -0.37954,-0.0194 -0.75951,-0.006 -1.13672,0.0469 -13.58276,1.89585 -25.06383,12.67683 -34.58398,22.79297 -7.80355,8.29202 -21.75586,26.53515 -21.75586,26.53515 0,0 -38.50981,2.62013 -65.41406,8.1836 0.17202,-0.44749 6.62436,-17.32361 0.94531,-18.6211 -8.33701,-1.90477 -16.94808,-0.10376 -27.60156,7.46289 -10.65346,7.56673 -15.43153,17.40002 -16.22852,20.10938 l 2.95898,-0.60742 c -11.23101,2.90204 -22.47261,7.38311 -36.5332,17.11718 -19.53008,13.52058 -26.68356,36.1223 -27.48047,46.80079 31.50776,16.82907 47.23765,18.84696 95.63193,21.86893 l 17.6599,12.55891 c -2.57225,-4.7901 -9.41292,-17.30675 -9.41292,-17.30675 0,0 39.06411,-0.74852 46.54492,-0.56445 6.45247,0.15874 13.97488,3.38074 17.80664,6.76172 l 20.19531,20.51367 c 0.40014,-0.0397 25.68074,-2.50134 46.99024,6.97265 17.58517,7.81822 29.96273,18.92933 35.46289,40.4043 3.41454,13.33187 3.1875,20.08008 3.1875,20.08008 0,0 -17.69055,-5.25812 -31.1582,3.10937 -12.12372,7.53253 -11.47657,18.80664 -11.47657,18.80664 0,0 4.14413,-7.65021 16.09766,-0.79687 0,0 16.03746,7.84673 22.71094,13.62695 6.70768,5.80989 12.68921,10.8946 16.81445,20.63867 2.94852,7.57051 1.91406,19.60547 1.91406,19.60547 0,0 7.40671,-7.77526 10.67774,-11.63476 6.14369,-7.24917 7.70552,-15.36866 7.73047,-23.66797 0.0416,-13.79845 -9.96094,-22.07422 -9.96094,-22.07422 0,0 12.66082,-32.68562 5.17773,-74.60156 C 419.21963,581.23028 403.6451,560.71364 386.80273,542.48438 364.1982,518.01855 341.2207,500.4082 341.2207,500.4082 c -2.07196,-3.18757 -5.65503,-5.85034 7.17188,-34.58593 8.78538,-19.68155 14.02539,-18.48829 14.02539,-18.48829 0,0 -5.76192,-7.88435 -11.45508,-8.17578 z m -38.4043,173.65235 c -0.003,3.1e-4 -0.0723,0.006 -0.0723,0.006 L 292.36328,592.2969 c -4.62553,-4.39426 -12.77637,-6.53044 -17.80664,-6.76172 l -46.54492,0.56445 c 2.27079,4.22872 9.2778,17.64668 15.2148,23.77942 7.87391,8.13358 28.72104,24.67654 50.26367,30.20312 21.5255,5.52223 41.64258,-4.33984 41.64258,-4.33984 z M 219.61133,498.58984 c -2.72615,0.598 -5.32506,1.12505 -7.8711,1.61914 z"
       transform="scale(0.26458333)"
       sodipodi:nodetypes="sssccssccsccccsccsscsccsccsscsscscscccccssccccc" />
    <path
       id="path12346-9"
       style="fill:none;fill-opacity:1;stroke:#ffffff;stroke-width:0.551306;stroke-linecap:round;stroke-linejoin:round;stroke-miterlimit:4;stroke-dasharray:none;stroke-opacity:1"
       d="m 60.330606,131.46107 c 0,0 1.786168,-4.61755 0.26355,-4.96542 -2.205833,-0.50397 -4.483794,-0.0273 -7.302528,1.97471 -2.818728,2.00202 -4.083158,4.60371 -4.294029,5.32056 m 33.681003,28.3496 c 0,0 6.769105,-0.68302 12.452246,1.84365 4.652742,2.06857 7.927422,5.00801 9.382672,10.68993 0.90343,3.52739 0.84339,5.31334 0.84339,5.31334 0,0 -4.68079,-1.3916 -8.24411,0.8223 -3.207733,1.99298 -3.036181,4.97597 -3.036181,4.97597 0,0 1.096397,-2.02412 4.259101,-0.21084 0,0 4.24344,2.07613 6.00913,3.60548 1.77474,1.5372 3.3574,2.88281 4.44887,5.46093 0.78013,2.00303 0.50602,5.18682 0.50602,5.18682 0,0 1.9599,-2.0572 2.82536,-3.07836 1.62552,-1.91801 2.0386,-4.06627 2.0452,-6.26213 0.011,-3.65084 -2.63558,-5.84046 -2.63558,-5.84046 0,0 3.34979,-8.64799 1.36989,-19.73825 -1.98621,-11.12547 -6.10659,-16.5537 -10.5628,-21.37686 -5.98079,-6.47325 -12.060437,-11.1327 -12.060437,-11.1327 -0.548207,-0.84338 -1.49617,-1.54778 1.897616,-9.15073 2.324465,-5.20741 3.710909,-4.89165 3.710909,-4.89165 0,0 -1.734542,-2.37352 -3.331378,-2.15063 -3.593772,0.50161 -6.631878,3.35366 -9.150751,6.03022 -2.064688,2.19393 -5.756105,7.02117 -5.756105,7.02117 0,0 -11.50301,0.78194 -18.603297,2.44945 -7.191368,1.68889 -11.622008,1.38983 -18.934035,6.45191 -5.167335,3.57732 -7.059831,9.5575 -7.270679,12.38285 m 44.510946,6.16982 11.316007,11.49494 c 0,0 -5.322557,2.6091 -11.017844,1.14801 -5.699821,-1.46224 -11.215615,-5.83928 -13.298919,-7.99129 -3.350202,-3.46065 -4.025465,-6.29164 -4.025465,-6.29164 0,0 10.335628,-0.19779 12.314926,-0.14909 1.707217,0.042 3.697461,0.89454 4.711281,1.78909 z m -14.535996,2.93952 -4.672515,-3.32288 -13.77768,-1.32862 -11.524755,-4.45784" />
    <path
       id="path13256"
       style="fill:#ffffff;stroke:#ffffff;stroke-width:0.551306;stroke-linecap:round;stroke-linejoin:round"
       d="m 47.744463,150.95967 a -1.707858,1.1807414 0 0 0 1.707858,1.18074 -1.707858,1.1807414 0 0 0 1.707858,-1.18074 -1.707858,1.1807414 0 0 0 -1.707858,-1.18074 -1.707858,1.1807414 0 0 0 -1.707858,1.18074 z" />
    <path
       id="path13459"
       style="fill:#ffffff;fill-opacity:1;stroke:#ffffff;stroke-width:0.551306;stroke-linecap:round;stroke-linejoin:round;stroke-miterlimit:4;stroke-dasharray:none;stroke-opacity:1"
       d="m 64.763963,148.08197 c 0.593157,0.59282 0.387641,2.05808 -0.238333,2.68398 -0.601974,0.60169 -1.301431,-0.39172 -1.967551,-0.36126 -1.727386,0.079 -2.957258,1.39837 -4.995492,1.39858 -3.23739,-8e-5 -5.86161,-1.31242 -5.861226,-2.93112 1.72e-4,-1.61859 2.624545,-2.93067 5.861735,-2.93061 2.417824,8.3e-4 3.592681,1.41014 5.460842,1.87097 0.569835,0.14058 1.292517,-0.17772 1.740025,0.26946 z"
       sodipodi:nodetypes="ccacccac" />
    <path
       style="fill:#ffffff;fill-opacity:1;stroke:#ffffff;stroke-width:0.551306;stroke-linecap:butt;stroke-linejoin:round;stroke-miterlimit:4;stroke-dasharray:none;stroke-opacity:1"
       d="m 32.843562,150.54222 c -0.307807,0.57969 -0.819999,2.48982 1.83382,3.89127 2.65382,1.40146 6.768743,1.10328 8.975281,1.81892 2.206554,0.71564 7.156378,3.10109 9.512018,3.72728 2.355645,0.62617 8.080737,0.92436 8.080737,0.92436 0,0 -1.490912,-1.49091 -2.355632,-3.25019 -0.86473,-1.75928 -0.864734,-3.90618 -0.864734,-3.90618 0,0 -3.697464,1.312 -6.202188,0.71563 -2.504731,-0.59636 -7.335286,-2.624 -9.184009,-2.32582 -1.848735,0.29818 -4.830557,0.32801 -6.112731,-0.29818 -1.282187,-0.62617 -2.519664,-2.34072 -2.519664,-2.34072 0,0 -0.730536,0.34291 -1.162914,1.04362 z"
       id="path10885"
       sodipodi:nodetypes="cssscscssscc" />
    <path
       style="fill:#ffffff;fill-opacity:1;stroke:#ffffff;stroke-width:0.551306;stroke-linecap:round;stroke-linejoin:round;stroke-miterlimit:4;stroke-dasharray:none;stroke-opacity:1"
       d="m 87.396008,156.34186 c 2.893105,-0.48178 5.009462,-1.31201 8.796369,-0.20872 3.786916,1.10327 6.368423,2.55537 9.690913,6.58982 2.50473,3.04146 3.96583,5.99346 3.90619,9.45237 -0.0596,3.45892 -2.86259,-2.74322 -2.86259,-2.74322 0,0 -1.44903,-3.05328 -2.74328,-4.17456 -2.12764,-1.84328 -2.19176,-0.55626 -1.19273,0.29818 1.82303,1.55918 3.38171,5.05459 3.51856,6.56001 0.11926,1.31202 -1.04759,2.48512 -1.49092,0.4771 -0.50691,-2.296 -2.85539,-5.30743 -4.80074,-6.88801 -1.908355,-1.55055 -3.549376,-2.73835 -8.82619,-4.11491 -4.544533,-1.18553 -4.741086,-0.68583 -6.768731,-1.10328 -1.958298,-0.40318 -4.877224,-1.16228 -2.234552,-2.56106 1.792768,-0.84255 3.280732,-1.2961 5.007666,-1.58369 z"
       id="path14631"
       sodipodi:nodetypes="assscsssssssca" />
    <path
       style="fill:#ffffff;fill-opacity:1;stroke:#ffffff;stroke-width:0.551306;stroke-linecap:round;stroke-linejoin:round;stroke-miterlimit:4;stroke-dasharray:none;stroke-opacity:1"
       d="m 112.29271,189.3973 c -0.30313,-2.15764 -1.72795,-4.57903 -3.4276,-6.21903 -1.69966,-1.63998 -1.25036,2.93672 -2.65381,3.90618 -0.72227,0.49892 -0.30527,-1.52342 0.0298,-2.89237 0.39127,-1.59846 0.95612,-2.39125 -0.0895,-2.65381 -2.402,-0.60321 -4.40791,-1.14872 -7.279243,0.0313 -2.977613,1.22369 -3.543624,2.12796 -2.080054,2.38249 1.371646,0.23853 4.941977,1.73905 7.060157,3.22469 2.31328,1.62247 4.77945,3.03799 5.93698,6.05026 0.95487,2.48486 0.37529,3.40351 0.37529,3.40351 2.58304,-2.65531 2.45782,-4.885 2.12791,-7.2332 z"
       id="path20819"
       sodipodi:nodetypes="sssssssascs" />
  </g>
</svg>
