<?xml version="1.0" encoding="UTF-8" standalone="no"?>
<!-- Created with Inkscape (http://www.inkscape.org/) -->

<svg
   width="210mm"
   height="297mm"
   viewBox="0 0 210 297"
   version="1.1"
   id="svg5"
   xmlns="http://www.w3.org/2000/svg"
   xmlns:svg="http://www.w3.org/2000/svg">
  <defs
     id="defs2" />
  <g
     id="layer1">
    <path
       style="fill:#7eb1fd;stroke-width:0.0264583"
       d="m 74.17995,260.47281 c -0.29926,-0.0821 -0.45517,-0.16306 -0.64048,-0.33242 -0.4187,-0.38267 -0.69347,-1.00656 -0.72255,-1.64063 -0.0168,-0.3667 0.0273,-0.60597 0.16463,-0.89251 0.21565,-0.44999 0.47818,-0.73905 1.44219,-1.5879 0.35653,-0.31394 0.95485,-0.82292 1.30969,-1.15307 1.12954,-1.05095 2.67924,-2.22423 3.57954,-3.24016 0.80011,-0.87404 1.62079,-1.87896 2.22391,-2.72319 0.12139,-0.16991 0.50444,-0.7316 0.85123,-1.2482 0.95016,-1.4154 1.64073,-2.34101 2.12494,-2.84817 1.085524,-1.13696 2.556914,-1.78004 4.182204,-1.82787 0.56264,-0.0165 0.59811,-0.0287 0.59811,-0.20553 0,-0.13896 -0.0672,-0.18921 -0.28144,-0.21052 -0.21281,-0.0212 -0.84146,0.0213 -1.20022,0.0811 -1.45554,0.2425 -2.781334,0.96041 -3.719444,2.01407 -0.39509,0.44376 -1.06795,1.3318 -1.63425,2.15688 -0.14396,0.20975 -0.24858,0.33731 -0.27658,0.33726 -0.25398,-5.1e-4 -1.72823,-0.17049 -2.75702,-0.31787 -4.4259,-0.63403 -9.97095,-2.01258 -16.020536,-3.98285 l -0.926037,-0.3016 -0.75406,-0.4662 c -4.6841,-2.89594 -7.61683,-4.44495 -10.90083,-5.75761 -2.080137,-0.83146 -3.29557,-1.06343 -4.61698,-0.88114 -0.718194,0.0991 -1.249286,0.30382 -1.882963,0.72594 -0.667072,0.44437 -1.092658,0.83772 -2.377304,2.19725 -1.978225,2.09354 -2.659999,2.71118 -3.862441,3.49912 -0.984934,0.64541 -1.907037,1.11296 -2.800535,1.41999 -0.370928,0.12746 -1.273427,0.35708 -1.922277,0.48906 -1.886224,0.38368 -3.334847,0.21559 -4.072053,-0.47252 -0.312298,-0.29149 -0.457862,-0.62449 -0.457363,-1.04628 3.84e-4,-0.32471 0.06875,-0.58469 0.25369,-0.96476 0.159657,-0.3281 0.185724,-0.36723 0.851377,-1.27803 1.136619,-1.55522 2.270044,-3.25123 3.045388,-4.557 0.484906,-0.81663 1.049494,-1.88103 1.267207,-2.38902 0.0585,-0.1365 0.09937,-0.19302 0.169864,-0.23488 0.488524,-0.29013 1.442051,-0.82313 1.697296,-0.94875 0.742595,-0.36547 1.722021,-0.57103 2.403969,-0.50454 0.153447,0.015 0.245604,0.0126 0.29008,-0.008 0.08905,-0.0403 0.145674,-0.14839 0.123672,-0.23606 -0.03234,-0.12883 -0.112535,-0.15479 -0.525734,-0.17011 -0.787797,-0.0292 -1.649957,0.15622 -2.414789,0.51941 -0.259612,0.12328 -1.096607,0.59017 -1.555358,0.86762 -0.127842,0.0773 -0.23974,0.14057 -0.248661,0.14057 -0.0089,0 -0.166261,-0.1459 -0.349643,-0.32422 -0.656231,-0.63813 -1.698645,-1.56914 -2.796619,-2.49775 -0.731571,-0.61872 -1.001421,-0.82743 -1.637844,-1.26676 -0.690482,-0.47665 -0.91027,-0.64883 -1.151083,-0.90176 -0.344582,-0.36191 -0.485106,-0.71066 -0.483834,-1.20076 0.0015,-0.56387 0.230201,-1.12374 0.695319,-1.70192 1.027541,-1.2773 2.778964,-1.7008 5.090676,-1.23092 0.960622,0.19525 1.984347,0.54933 3.554863,1.22951 3.220518,1.39479 3.744485,1.56603 4.941142,1.61486 0.718186,0.0293 1.168557,-0.0377 2.248958,-0.33441 0.363802,-0.0999 0.976974,-0.26664 1.362605,-0.37047 1.118829,-0.30123 2.142196,-0.65612 3.01625,-1.04597 0.693704,-0.30942 1.86017,-0.93826 2.447395,-1.31939 0.76326,-0.49538 1.265912,-1.0537 1.827312,-2.02967 0.24897,-0.43283 0.75999,-1.448 1.0176,-2.02152 0.407158,-0.90645 0.666228,-1.35726 0.961438,-1.67297 0.64366,-0.68838 1.68523,-0.89619 2.67144,-0.53299 0.54253,0.1998 1.03895,0.49507 2.862,1.70229 1.91736,1.26966 2.07655,1.35572 3.250577,1.75727 2.643706,0.9042 4.836066,1.3556 8.682136,1.78761 2.2003,0.24714 3.66238,0.3722 6.36323,0.54426 0.69122,0.044 1.66753,0.10917 2.16958,0.14474 2.12575,0.15062 3.18198,0.1845 5.093234,0.16337 2.40746,-0.0266 4.51981,-0.15035 7.32896,-0.42928 1.46481,-0.14544 2.172672,-0.22952 5.331352,-0.63323 1.970144,-0.2518 3.672274,-0.35715 5.767914,-0.357 1.5875,1e-4 2.47501,0.039 3.96064,0.1734 5.17747,0.46852 10.23287,1.91074 13.32948,3.80268 1.32335,0.80852 2.15937,1.66533 2.35383,2.41234 0.0226,0.0867 0.0411,0.18035 0.0411,0.20804 0,0.0936 -1.20473,1.76276 -1.7657,2.44643 -0.86746,1.05722 -1.97377,2.1589 -3.38679,3.37262 -0.9059,0.77812 -2.58333,2.12216 -3.64491,2.92047 -4.10747,3.08885 -7.55372,4.63352 -11.46968,5.14091 -0.22556,0.0292 -0.64823,0.0769 -0.93928,0.10588 -0.29104,0.029 -0.83872,0.0836 -1.21708,0.12125 -4.819554,0.48005 -8.518366,1.53864 -10.914056,3.12356 -0.82624,0.54662 -1.61794,1.2598 -2.28153,2.05524 -0.62453,0.74864 -0.95245,1.24224 -1.91549,2.88334 -0.65022,1.10804 -0.83801,1.41171 -1.266034,2.04731 -0.73402,1.09 -1.40029,1.90535 -2.24692,2.74968 -0.33615,0.33523 -0.80168,0.76793 -1.03451,0.96154 -1.89475,1.57559 -4.31868,3.01885 -7.09839,4.22653 -0.28064,0.12193 -0.51877,0.22082 -0.52916,0.21975 -0.0104,-10e-4 -0.12266,-0.0304 -0.24947,-0.0652 z m 26.88733,-21.27044 c 0.89028,-0.13575 1.62328,-0.67614 1.92274,-1.41751 0.22902,-0.567 0.1742,-1.18594 -0.15388,-1.73723 -0.10466,-0.17587 -0.45866,-0.54558 -0.63916,-0.66753 -0.76913,-0.51962 -1.78135,-0.61151 -2.668394,-0.24223 -0.59187,0.2464 -1.10009,0.7778 -1.28548,1.34411 -0.0878,0.26828 -0.11328,0.76055 -0.0517,1.00041 0.10466,0.40787 0.2858,0.72688 0.57515,1.01294 0.58196,0.57532 1.438424,0.83852 2.300744,0.70704 z m -0.60854,-0.65103 c -0.15976,-0.0322 -0.24814,-0.0685 -0.43656,-0.17937 -0.447174,-0.26308 -0.763574,-0.58275 -0.959654,-0.9696 -0.0768,-0.15143 -0.0963,-0.22295 -0.10632,-0.39005 -0.0112,-0.1858 -0.005,-0.21864 0.0638,-0.35714 0.10612,-0.21259 0.59116,-0.69867 0.86476,-0.86661 0.249724,-0.15328 0.605434,-0.28085 0.787054,-0.28226 0.13926,-0.001 0.26317,0.0562 0.26317,0.12171 0,0.065 -0.13309,0.19861 -0.51882,0.52066 -0.535414,0.44704 -0.671794,0.61521 -0.671794,0.82837 0,0.17721 0.0689,0.27326 0.519374,0.72401 0.42547,0.42573 0.59187,0.62838 0.59187,0.72082 0,0.11161 -0.18542,0.17209 -0.39688,0.12946 z"
       id="path246" />
    <path
       style="fill:#0054d2;stroke-width:0.0264583"
       d="m 75.861914,260.74938 c -0.58971,-0.0409 -1.40229,-0.15296 -1.40229,-0.1933 0,-0.009 0.16371,-0.0862 0.3638,-0.17203 2.78377,-1.19393 5.30339,-2.68781 7.21651,-4.27867 0.23283,-0.19361 0.69836,-0.62631 1.03451,-0.96154 0.84663,-0.84433 1.5129,-1.65968 2.24692,-2.74968 0.42803,-0.6356 0.61582,-0.93927 1.26604,-2.04731 0.96304,-1.6411 1.29096,-2.1347 1.91549,-2.88334 1.03408,-1.23955 2.18393,-2.12237 3.74997,-2.8791 2.46913,-1.19313 5.66924,-1.94828 9.972416,-2.35327 0.53011,-0.0499 0.50294,-0.0507 0.43893,0.0133 -0.0669,0.0669 -0.0679,0.18733 -0.002,0.26826 0.0455,0.0561 0.0691,0.0618 0.23151,0.0557 0.27172,-0.0101 1.22145,-0.128 1.76437,-0.219 3.56514,-0.59759 6.77254,-2.06569 10.50792,-4.80972 1.24282,-0.91298 3.32944,-2.58498 4.43255,-3.55178 1.78619,-1.56547 2.90076,-2.78062 4.13411,-4.50721 0.43774,-0.6128 0.42199,-0.61498 0.35064,0.0485 -0.25794,2.39891 -1.32859,6.03137 -2.64037,8.95813 -1.10476,2.4649 -2.59744,4.74797 -4.533,6.9333 -0.47997,0.54191 -1.711,1.76599 -2.27309,2.26025 -1.52228,1.33858 -2.70167,2.15679 -4.19365,2.90935 -1.35847,0.68522 -2.63315,1.1861 -5.04904,1.984 -2.01275,0.66475 -2.94866,0.93899 -4.14523,1.21465 -2.961556,0.68227 -5.573486,0.94852 -8.501726,0.86664 -1.22534,-0.0343 -2.9056,-0.14066 -3.21401,-0.2035 l -0.0741,-0.0151 0.0739,-0.0968 c 0.20664,-0.27084 0.91306,-1.28752 1.3174,-1.896 0.61794,-0.9299 0.97161,-1.5245 1.33771,-2.24895 0.3964,-0.78445 0.56008,-1.17628 1.14946,-2.75167 0.26677,-0.71305 0.53968,-1.43754 0.60648,-1.60996 0.0668,-0.17242 0.12145,-0.34263 0.12145,-0.37823 0,-0.0832 -0.1112,-0.19462 -0.1943,-0.19462 -0.0354,0 -0.0898,0.0208 -0.12085,0.0463 -0.0386,0.0316 -0.2434,0.54501 -0.64664,1.62057 -0.32461,0.86585 -0.65909,1.74096 -0.74327,1.94469 -0.18325,0.44346 -0.59023,1.28999 -0.8141,1.69333 -0.46292,0.83405 -1.23429,2.00392 -2.29044,3.47372 -0.30884,0.42979 -0.36739,0.49448 -0.96764,1.06911 -1.09034,1.04382 -1.77064,1.65325 -2.47983,2.22149 -1.57337,1.26067 -3.02826,2.07981 -4.61491,2.5983 -1.18195,0.38623 -2.39086,0.64194 -3.64274,0.77049 -0.38442,0.0395 -1.40775,0.0702 -1.68862,0.0507 z m 2.67229,-9.29372 c -1.18794,-0.53407 -3.90736,-1.91512 -7.28927,-3.70185 -1.8358,-0.96989 -3.19757,-1.74934 -5.37104,-3.07429 -0.91327,-0.55672 -3.34916,-2.06367 -3.38283,-2.09276 -0.0124,-0.0108 0.26735,0.0751 0.62177,0.1907 6.25362,2.0404 11.79908,3.42577 16.2945,4.07071 1.19756,0.17181 2.71282,0.33833 2.79426,0.30708 0.0475,-0.0182 -0.70995,1.11245 -1.15038,1.71725 -0.65963,0.90578 -2.14918,2.68016 -2.25243,2.68313 -0.0218,6.3e-4 -0.14089,-0.0444 -0.26458,-0.1 z M 100.32761,238.8283 c -0.445356,-0.0532 -0.922456,-0.26521 -1.240656,-0.55128 -0.1999,-0.1797 -0.40299,-0.48789 -0.47733,-0.7243 -0.0844,-0.26847 -0.0828,-0.69858 0.004,-0.94391 0.2181,-0.61985 0.79431,-1.08131 1.538446,-1.23209 0.16904,-0.0343 0.30155,-0.0412 0.57879,-0.0301 0.42726,0.017 0.58212,0.0551 0.95382,0.23505 0.24253,0.1174 0.30664,0.16385 0.51843,0.37565 0.24943,0.24942 0.38342,0.46809 0.46409,0.75736 0.055,0.1972 0.0439,0.59296 -0.0226,0.80698 -0.2688,0.86486 -1.27306,1.43134 -2.31648,1.30668 z m 0.46466,-0.3076 c 0.0255,-0.0229 0.0463,-0.0612 0.0463,-0.0852 0,-0.0924 -0.1664,-0.29509 -0.59187,-0.72082 -0.450476,-0.45075 -0.519376,-0.5468 -0.519376,-0.72401 0,-0.21316 0.13638,-0.38133 0.671796,-0.82837 0.38573,-0.32205 0.51882,-0.45561 0.51882,-0.52066 0,-0.0655 -0.12391,-0.12278 -0.26317,-0.12171 -0.18162,0.001 -0.53733,0.12898 -0.787056,0.28226 -0.2736,0.16794 -0.75864,0.65402 -0.86476,0.86661 -0.0691,0.1385 -0.075,0.17134 -0.0638,0.35714 0.0148,0.24616 0.11597,0.46769 0.35015,0.76698 0.19679,0.25152 0.66721,0.60511 0.953946,0.71705 0.22001,0.0859 0.46002,0.0906 0.54901,0.0107 z M 56.410064,216.71996 c 0.0191,-0.008 0.0419,-0.007 0.0507,0.002 0.009,0.009 -0.007,0.015 -0.0347,0.0139 -0.0308,-0.001 -0.0371,-0.008 -0.016,-0.016 z m 0.42334,0 c 0.0191,-0.008 0.0419,-0.007 0.0507,0.002 0.009,0.009 -0.007,0.015 -0.0347,0.0139 -0.0308,-0.001 -0.0371,-0.008 -0.016,-0.016 z"
       id="path244" />
    <path
       style="fill:#020304;stroke-width:0.0264583"
       d="m 75.681544,261.13362 c -0.75576,-0.0481 -1.67469,-0.23228 -2.02865,-0.40658 -0.7256,-0.35733 -1.25572,-1.33489 -1.25624,-2.31657 -3.4e-4,-0.65978 0.24625,-1.21674 0.80628,-1.82103 0.14836,-0.16008 0.72084,-0.66997 2.88412,-2.56878 1.77558,-1.55849 2.41547,-2.13354 2.39448,-2.15183 -0.007,-0.006 -0.17991,-0.0872 -0.38364,-0.17958 -0.86411,-0.39203 -4.06683,-2.01854 -6.5749,-3.33908 -2.78704,-1.46742 -4.36822,-2.39246 -8.71802,-5.10034 -4.35421,-2.71062 -6.46254,-3.91683 -9.02229,-5.16177 -1.10556,-0.53769 -1.86976,-0.8733 -3.18546,-1.39893 -1.638,-0.65439 -2.54273,-0.87461 -3.6011,-0.87656 -0.97279,-0.002 -1.63848,0.17446 -2.34156,0.61999 -0.68833,0.43617 -1.26153,0.96805 -2.69918,2.50457 -1.6488,1.7622 -2.426,2.45981 -3.61113,3.24129 -1.07705,0.71021 -2.18575,1.26425 -3.12209,1.56017 -0.29647,0.0937 -1.263821,0.33409 -1.747049,0.43416 -1.459518,0.30224 -2.58671,0.30178 -3.478468,-0.001 -0.808212,-0.27479 -1.303758,-0.71949 -1.513317,-1.35807 -0.0591,-0.18009 -0.06956,-0.25902 -0.07015,-0.52916 -8.38e-4,-0.38912 0.07644,-0.70578 0.272311,-1.11584 0.156552,-0.32775 0.272958,-0.50955 0.666246,-1.04052 1.435323,-1.9378 2.840311,-4.07238 3.731365,-5.66902 0.275306,-0.49331 0.816146,-1.56925 0.816146,-1.62362 0,-0.0727 -1.563649,-1.5038 -2.791421,-2.55478 -0.891695,-0.7633 -1.2953,-1.07998 -1.989997,-1.56144 -1.026048,-0.71109 -1.325958,-0.99345 -1.554058,-1.46312 -0.169584,-0.34918 -0.211654,-0.54119 -0.208697,-0.9525 0.0027,-0.38102 0.0456,-0.58891 0.201412,-0.97697 0.317331,-0.79032 1.025865,-1.56992 1.789994,-1.96952 0.781112,-0.40849 1.608638,-0.57985 2.660996,-0.55103 1.038919,0.0285 1.897257,0.19386 3.108857,0.59909 0.67047,0.22424 1.32253,0.48476 2.55323,1.02009 2.55844,1.11287 3.16319,1.31359 4.19858,1.39356 0.43186,0.0334 0.95575,0.006 1.35655,-0.0713 0.20758,-0.0399 1.40575,-0.35801 2.59403,-0.68866 1.4075,-0.39164 2.36577,-0.764 3.59834,-1.39824 0.59618,-0.30677 1.19618,-0.65163 1.58476,-0.91085 0.45425,-0.30304 0.93581,-0.80296 1.30448,-1.35424 0.30025,-0.44896 0.85282,-1.50223 1.24926,-2.38125 0.48373,-1.07257 0.76524,-1.54929 1.13046,-1.91442 0.34293,-0.34284 0.70843,-0.55168 1.18273,-0.6758 0.77966,-0.20401 1.44403,-0.11809 2.30625,0.29827 0.48828,0.23579 0.85316,0.46133 2.38101,1.4718 1.39222,0.92077 1.74016,1.14027 2.07228,1.30736 0.88331,0.44438 3.12969,1.13504 4.91272,1.51045 2.5664,0.54033 6.34371,0.96996 11.28448,1.2835 0.69123,0.0439 1.66754,0.10901 2.16959,0.14477 2.00522,0.14282 3.33932,0.18591 5.04032,0.16277 2.41994,-0.0329 4.61019,-0.16411 7.36864,-0.44137 1.40342,-0.14106 2.23386,-0.24 5.19907,-0.6194 2.001226,-0.25606 3.742266,-0.36524 5.820826,-0.36502 2.21187,2.4e-4 4.16576,0.13637 6.20448,0.4323 5.18793,0.75307 9.81857,2.37044 12.32958,4.30643 0.12369,0.0954 0.39251,0.34066 0.59737,0.54509 0.52191,0.52085 0.78301,0.92695 0.92792,1.44327 0.0398,0.14167 0.0479,0.26524 0.0463,0.70115 -0.001,0.29104 -0.0166,0.66608 -0.0346,0.83343 -0.34918,3.25483 -1.92436,8.04108 -3.68766,11.20511 -1.30009,2.33285 -2.87682,4.39122 -4.86444,6.3504 -1.49867,1.47722 -2.99416,2.64952 -4.45464,3.49195 -1.67728,0.96749 -4.06016,1.9001 -7.83166,3.06515 -2.64831,0.81809 -5.594016,1.3464 -8.202086,1.47103 -1.94545,0.093 -4.41043,0.0177 -6.06857,-0.18524 l -0.22127,-0.0271 -0.37458,0.36492 c -1.40783,1.37153 -2.52109,2.34325 -3.48236,3.03961 -1.45641,1.05507 -2.76277,1.7218 -4.2672,2.17786 -1.92712,0.5842 -3.78649,0.84141 -5.35904,0.74133 z m 1.86924,-0.43494 c 1.25188,-0.12855 2.46079,-0.38426 3.64273,-0.77049 1.58665,-0.51849 3.04155,-1.33763 4.61492,-2.5983 0.70918,-0.56824 1.38949,-1.17767 2.47983,-2.22149 0.60025,-0.57463 0.6588,-0.63932 0.96763,-1.06911 1.05616,-1.4698 1.82753,-2.63967 2.29045,-3.47372 0.22387,-0.40334 0.63085,-1.24987 0.8141,-1.69333 0.0842,-0.20373 0.41866,-1.07884 0.74327,-1.94469 0.40323,-1.07556 0.60808,-1.58894 0.64664,-1.62057 0.031,-0.0255 0.0854,-0.0463 0.12085,-0.0463 0.0831,0 0.1943,0.11138 0.1943,0.19462 0,0.0356 -0.0547,0.20581 -0.12145,0.37823 -0.0668,0.17242 -0.33972,0.89691 -0.60648,1.60996 -0.58938,1.57539 -0.75306,1.96722 -1.14947,2.75167 -0.36609,0.72445 -0.71976,1.31905 -1.3377,2.24895 -0.40434,0.60848 -1.11077,1.62516 -1.31741,1.896 l -0.0739,0.0968 0.0741,0.0151 c 0.0407,0.008 0.27648,0.033 0.52386,0.055 2.04398,0.18116 4.28211,0.21032 6.07219,0.0791 2.41295,-0.17684 5.066216,-0.68804 7.531896,-1.45116 0.85626,-0.26501 2.83189,-0.92143 3.52769,-1.1721 2.06769,-0.74494 3.65242,-1.49256 4.92125,-2.32168 1.75753,-1.14847 3.85832,-3.06662 5.44827,-4.9746 1.38046,-1.65659 2.6084,-3.53472 3.4865,-5.33257 1.48198,-3.03427 2.75065,-7.12816 3.03846,-9.8048 0.0713,-0.66347 0.0871,-0.66129 -0.35064,-0.0485 -1.23336,1.72659 -2.34792,2.94174 -4.13411,4.50721 -1.10311,0.9668 -3.18974,2.6388 -4.43255,3.55178 -3.73538,2.74403 -6.94278,4.21213 -10.50792,4.80972 -0.54292,0.091 -1.49266,0.20888 -1.76437,0.219 -0.16237,0.006 -0.18601,3.5e-4 -0.23151,-0.0557 -0.0279,-0.0343 -0.0507,-0.0917 -0.0507,-0.12741 0,-0.16158 0.0837,-0.20247 0.47625,-0.23268 0.1237,-0.01 0.45112,-0.0462 0.72761,-0.0815 3.89631,-0.49726 7.37688,-2.04541 11.41677,-5.07814 0.94437,-0.70893 2.33732,-1.81259 3.24231,-2.56893 1.05464,-0.88142 1.78196,-1.54665 2.6053,-2.3829 0.9949,-1.01051 1.63104,-1.79099 2.68568,-3.29507 0.38957,-0.55558 0.39064,-0.55837 0.31444,-0.81744 -0.23487,-0.79858 -1.203,-1.72696 -2.69617,-2.5855 -1.41063,-0.81108 -3.38513,-1.61267 -5.39437,-2.18996 -3.96308,-1.13867 -8.43716,-1.6962 -12.64745,-1.57607 -1.8532,0.0529 -3.05397,0.14582 -4.844636,0.37495 -2.90849,0.37217 -3.73649,0.46984 -5.25198,0.61947 -3.44071,0.33974 -6.54475,0.48103 -9.12042,0.41515 -1.3528,-0.0346 -1.6773,-0.0507 -3.28854,-0.16283 -0.61847,-0.043 -1.68408,-0.11422 -2.36803,-0.15814 -4.48543,-0.28807 -8.21681,-0.70849 -10.69614,-1.20515 -1.92988,-0.3866 -4.33165,-1.11474 -5.32999,-1.61589 -0.36989,-0.18568 -0.65138,-0.36195 -1.93154,-1.20958 -1.75447,-1.16167 -2.05066,-1.34572 -2.54165,-1.57939 -0.72491,-0.345 -1.32724,-0.42234 -1.98184,-0.25449 -0.44276,0.11354 -0.75031,0.29503 -1.06954,0.63118 -0.32841,0.34581 -0.49939,0.6426 -1.00261,1.74035 -1.1223,2.44827 -1.75587,3.32666 -2.92366,4.05344 -0.66047,0.41105 -1.54757,0.88738 -2.2225,1.19338 -1.10191,0.49959 -1.90489,0.77263 -3.62479,1.23254 -0.4875,0.13036 -1.03518,0.27875 -1.21708,0.32976 -0.75178,0.2108 -1.3932,0.28166 -2.07698,0.22945 -1.08213,-0.0826 -1.75638,-0.30189 -4.19365,-1.3638 -1.29539,-0.56439 -1.99107,-0.84349 -2.67229,-1.07209 -1.192635,-0.40022 -2.177192,-0.58129 -3.15796,-0.5808 -1.317735,6.7e-4 -2.291456,0.34036 -3.04749,1.06313 -0.541284,0.51747 -0.891227,1.11208 -1.006677,1.71049 -0.09036,0.46837 0.0038,0.95076 0.257567,1.31984 0.20626,0.29996 0.494318,0.54093 1.378039,1.15275 0.602486,0.41712 0.85408,0.60938 1.422562,1.08705 1.039515,0.87346 2.040042,1.76059 2.866624,2.54172 0.473861,0.44781 0.47436,0.44818 0.543472,0.40776 1.375293,-0.80448 1.866853,-1.05662 2.389803,-1.22579 0.65906,-0.2132 1.40223,-0.3143 1.91162,-0.26006 0.23704,0.0252 0.2689,0.0351 0.32567,0.10114 0.0691,0.0803 0.064,0.17179 -0.0143,0.25872 -0.0387,0.0429 -0.0761,0.0458 -0.3882,0.0298 -0.75318,-0.0386 -1.58905,0.13684 -2.32978,0.48892 -0.25706,0.12219 -1.44918,0.79322 -1.718391,0.96726 -0.105262,0.0681 -0.144434,0.11393 -0.184218,0.21576 -0.08019,0.20524 -0.44427,0.94189 -0.665447,1.34641 -0.883135,1.6152 -2.146744,3.55783 -3.71741,5.715 -0.602111,0.82695 -0.68554,0.95319 -0.820905,1.24221 -0.612277,1.30725 0.02041,2.28753 1.669186,2.58619 0.405774,0.0735 1.230169,0.0788 1.733021,0.0111 0.777042,-0.10462 2.231064,-0.43633 2.853614,-0.65099 1.28632,-0.44355 2.84896,-1.3473 4.03878,-2.33585 0.65703,-0.54588 1.25569,-1.13922 2.72897,-2.70469 0.74635,-0.79306 1.35567,-1.38895 1.71603,-1.67821 1.0596,-0.85051 1.92274,-1.16425 3.20672,-1.16558 1.2694,-0.001 2.29707,0.28056 4.76324,1.30649 1.60314,0.6669 3.60506,1.66064 5.56347,2.76167 1.64524,0.92496 2.80637,1.62428 6.46907,3.89615 4.15452,2.57692 5.30562,3.23852 9.02201,5.1854 2.78505,1.45899 5.76406,2.94244 5.97955,2.97762 0.0572,0.009 0.10956,-0.0381 0.37467,-0.33926 1.25787,-1.42893 1.73467,-2.04885 2.85237,-3.70855 1.21911,-1.81031 1.92053,-2.7189 2.51781,-3.26149 1.14929,-1.04404 2.70576,-1.64831 4.24575,-1.64831 0.33856,0 0.38091,0.005 0.44397,0.0548 0.0964,0.0758 0.0964,0.21136 0,0.2872 -0.0631,0.0497 -0.10536,0.0548 -0.44844,0.0548 -1.31822,0 -2.64757,0.46731 -3.68883,1.29674 -0.47554,0.3788 -1.06495,1.05446 -1.80007,2.06347 -0.12192,0.16735 -0.53813,0.77457 -0.9249,1.34937 -1.16034,1.72443 -1.67885,2.39972 -2.85437,3.7174 -0.648645,0.80937 -1.471048,1.43029 -2.19934,2.07208 -0.47294,0.41665 -1.30638,1.15098 -1.85208,1.63184 -0.54571,0.48087 -1.18032,1.03925 -1.41026,1.24083 -0.94041,0.82448 -1.24314,1.33239 -1.23972,2.07996 0.003,0.74908 0.39006,1.52737 0.93312,1.87836 0.31056,0.20072 1.06127,0.35219 2.15342,0.43447 0.26016,0.0196 1.29402,-0.0119 1.67539,-0.0511 z M 100.30967,239.2259 c -1.282216,-0.14021 -2.227436,-1.12205 -2.161946,-2.2457 0.0567,-0.97209 0.82659,-1.76872 1.929316,-1.9962 0.26492,-0.0546 0.79402,-0.0549 1.0806,-5.6e-4 0.77839,0.14765 1.42027,0.60751 1.73322,1.24172 0.16521,0.3348 0.20829,0.51962 0.20659,0.88635 -10e-4,0.2707 -0.0108,0.332 -0.0865,0.55562 -0.29311,0.8661 -1.0903,1.45306 -2.11923,1.56037 -0.27982,0.0292 -0.30105,0.0291 -0.58208,-0.002 z m 0.82326,-0.43573 c 0.72381,-0.14893 1.31859,-0.64814 1.51142,-1.26856 0.0665,-0.21402 0.0776,-0.60978 0.0226,-0.80698 -0.0807,-0.28927 -0.21466,-0.50794 -0.46409,-0.75736 -0.21179,-0.2118 -0.2759,-0.25825 -0.51843,-0.37565 -0.3717,-0.17992 -0.52656,-0.21809 -0.95382,-0.23505 -0.27724,-0.011 -0.40975,-0.004 -0.57879,0.0301 -0.744136,0.15078 -1.320346,0.61224 -1.538446,1.23209 -0.0485,0.1377 -0.0608,0.23 -0.0619,0.46302 -0.002,0.36683 0.0618,0.5867 0.25141,0.87014 0.46536,0.69577 1.406206,1.03827 2.329986,0.84821 z"
       id="path242" />
  </g>
</svg>
