<?xml version="1.0" encoding="UTF-8" standalone="no"?>
<!-- Created with Inkscape (http://www.inkscape.org/) -->

<svg
   width="210mm"
   height="297mm"
   viewBox="0 0 210 297"
   version="1.1"
   id="svg5"
   sodipodi:docname="Zeichnung_004.svg"
   inkscape:version="1.1 (c68e22c387, 2021-05-23)"
   xmlns:inkscape="http://www.inkscape.org/namespaces/inkscape"
   xmlns:sodipodi="http://sodipodi.sourceforge.net/DTD/sodipodi-0.dtd"
   xmlns="http://www.w3.org/2000/svg"
   xmlns:svg="http://www.w3.org/2000/svg">
  <sodipodi:namedview
     id="namedview7"
     pagecolor="#000000"
     bordercolor="#666666"
     borderopacity="1.0"
     inkscape:pageshadow="2"
     inkscape:pageopacity="0"
     inkscape:pagecheckerboard="0"
     inkscape:document-units="mm"
     showgrid="false"
     inkscape:zoom="3.0574074"
     inkscape:cx="251.68383"
     inkscape:cy="547.0321"
     inkscape:window-width="1920"
     inkscape:window-height="1017"
     inkscape:window-x="1672"
     inkscape:window-y="-8"
     inkscape:window-maximized="1"
     inkscape:current-layer="layer1" />
  <defs
     id="defs2" />
  <g
     inkscape:label="Ebene 1"
     inkscape:groupmode="layer"
     id="layer1">
    <path
       style="fill:#e6e6e6;stroke-width:1.32449;fill-opacity:1"
       d="m 110.34002,205.54192 c 4.78991,-4.51366 -4.40801,-22.19661 -4.40801,-22.19661 1.55376,-1.21668 3.9026,-0.58954 5.85483,-0.87799 7.15288,-0.88746 11.79121,-2.1155 17.47999,-4.63648 3.0646,-1.74682 6.47948,-2.87261 9.42224,-4.81768 6.03308,-3.9876 11.73653,-8.60101 16.65739,-13.90048 3.45207,-3.71767 5.64655,-8.44932 8.86011,-12.37499 1.74919,-2.1368 3.53458,-4.28391 5.65065,-6.05808 5.05683,-4.23981 11.20735,-6.98256 16.61049,-10.77119 3.18096,-2.2304 10.22874,-5.59798 8.27787,-9.24566 -0.81032,-1.51507 -6.12755,0.22726 -9.2412,0.9329 -4.03106,0.91374 -7.36854,1.32489 -10.81665,2.71365 -1.16053,0.46754 -4.81199,2.55068 -6.14434,1.8189 -1.2205,-0.67034 -1.32388,-2.70181 -1.76719,-4.13306 -1.25825,-4.06215 -2.74278,-6.96486 -4.4919,-10.26485 -2.3391,-4.413 -3.16173,-8.3855 -5.36435,-8.55974 -2.24134,-0.17723 -4.04604,2.74026 -4.62031,4.91399 -1.78377,6.75171 1.48672,13.14668 4.93934,20.35947 1.1725,2.44948 3.98509,5.71307 3.38573,7.26576 -0.57373,1.48627 -1.58023,1.30936 -5.74489,3.33559 -9.37934,4.56333 -19.57944,8.26361 -29.98827,8.93704 -5.80201,0.37545 -11.70645,-0.93617 -17.21841,-2.78607 -6.86814,-2.30505 -12.575488,-6.51939 -19.205198,-10.17462 -12.324481,-6.795 -25.723611,-15.15602 -39.764048,-14.19146 -5.236594,0.35992 -11.519783,2.62808 -13.9675,7.27135 -1.871531,3.55028 -0.307868,8.34371 1.447975,11.95271 2.086539,3.62136 6.303143,7.77866 9.943185,9.05948 11.664726,4.10447 13.951654,5.86768 19.039215,10.51409 4.731827,4.32152 8.677743,8.1348 13.389163,13.79571 1.78348,1.96649 4.31985,5.69864 5.55562,7.5957 1.20729,1.49593 2.09865,3.20323 3.13429,4.81369 2.2215,3.45462 4.08176,7.16118 6.60552,10.4016 3.43004,4.40396 6.04285,11.47103 11.508068,12.1656 1.90182,-0.23828 3.32606,-0.70725 4.98059,-2.85827 z"
       id="path1094"
       sodipodi:nodetypes="csccaaaassssssssasssaasaacssccaacc" />
    <circle
       style="fill:#000000;stroke:#ffffff;stroke-width:0.825985;stroke-linecap:round;stroke-linejoin:round;fill-opacity:0"
       id="path4125"
       cx="77.557701"
       cy="149.76704"
       r="2.1660438" />
    <path
       style="fill:#e6e6e6;fill-opacity:1;stroke-width:0.885741"
       d="m 95.938827,132.95295 c 0.424737,-2.14523 2.548435,-0.29269 1.809843,1.14193 -0.588741,1.78135 -2.360483,0.09 -1.809843,-1.14193 z m -1.62345,-8.14359 c -0.541976,-1.32219 0.402379,-2.39386 1.730213,-1.68439 1.565998,0.10253 3.036958,1.99226 1.338347,3.12372 -1.125814,1.59339 -3.1185,0.54281 -3.03479,-1.21229 z m 9.831463,8.22638 c 0.8255,-1.49369 3.11069,-0.52775 1.6397,0.86555 -0.70669,0.89438 -3.52335,1.1808 -1.6397,-0.86555 z m -3.24945,-3.69043 c 1.48875,-1.2592 2.15644,2.02848 0.29262,1.44639 -0.57637,-0.21003 -0.73939,-1.02871 -0.29262,-1.44639 z m -2.665696,-11.97822 c 0.424739,-2.14524 3.007366,0.28862 2.268776,1.72325 -0.588735,1.78135 -2.819438,-0.49132 -2.268776,-1.72325 z m 9.098386,6.04563 c 6.04374,0.0305 -1.82021,3.93861 -3.06699,2.26349 -1.24679,-1.67513 3.76749,-7.28932 3.06699,-2.26349 z M 94.088927,112.23861 c 0.785396,-1.78591 2.121087,2.29716 0.618582,2.38431 -0.641448,-0.30513 -0.733499,-1.75646 -0.618582,-2.38431 z m 8.776473,0.32442 c 0.65449,-1.58876 2.98626,-1.70804 3.59957,-0.32345 -0.42024,1.30999 -1.44774,3.17806 -2.95877,2.81732 -1.03815,-0.35649 -1.05838,-1.66198 -0.6408,-2.49385 z m 12.09056,16.10302 c 0.90158,-0.39533 2.65176,0.5234 1.05177,1.12433 -1.26274,0.83705 -3.51554,-1.10343 -1.0518,-1.12437 z M 98.843915,106.77942 c 0.802964,-1.36972 2.771075,-1.1027 4.083595,-0.75087 0.96877,1.12885 -2.15492,0.96683 -2.33928,2.30089 -0.5002,1.91564 -2.088116,-0.55673 -1.744315,-1.55002 z m 15.314075,14.04225 c 0.86465,-0.38665 3.19448,-0.69796 1.71602,0.74328 -0.51088,1.4488 -3.54387,1.46644 -2.8971,-0.25295 0.35577,-0.24319 0.77575,-0.36043 1.18108,-0.49033 z m -2.17331,-6.41099 c -0.133,-2.07318 2.72944,-2.74953 3.54961,-0.83837 1.06725,1.7866 -1.32382,3.01617 -2.84012,2.5075 -0.87592,-0.0598 -0.77109,-1.0552 -0.70949,-1.66913 z m 10.07424,6.58017 c 1.10441,-1.04809 2.21028,1.16199 0.52424,1.01065 -0.87163,0.22388 -1.2681,-0.39486 -0.52424,-1.01065 z M 107.2273,101.96577 c 0.24879,-1.55059 2.45875,-1.74389 2.24385,0.067 0.37503,1.48981 -2.25395,3.2175 -2.47951,1.08471 -0.0239,-0.39641 0.0776,-0.79167 0.23566,-1.15167 z m 13.25864,8.31295 c 1.48872,-1.25917 2.1564,2.02845 0.2926,1.44638 -0.57636,-0.21004 -0.73939,-1.02871 -0.2926,-1.44638 z m 4.36244,4.45633 c 1.85171,-1.27162 3.08804,1.40354 0.63162,1.31341 -0.99552,0.12223 -2.13992,-0.78879 -0.63162,-1.31341 z m -7.02385,-10.43518 c 0.45191,-1.97786 3.82873,0.21711 1.63327,0.96923 -0.67564,0.18361 -1.95604,0.0475 -1.63327,-0.96923 z"
       id="path5427"
       sodipodi:nodetypes="cccccccccccccccccczccccsccsscccccccccccccccccccsccssccccccccc" />
  </g>
</svg>
