<?xml version="1.0" encoding="UTF-8" standalone="no"?>
<!-- Created with Inkscape (http://www.inkscape.org/) -->

<svg
   width="210mm"
   height="297mm"
   viewBox="0 0 210 297"
   version="1.1"
   id="svg2752"
   inkscape:version="1.1 (c68e22c387, 2021-05-23)"
   sodipodi:docname="Zeichnung_006.svg"
   xmlns:inkscape="http://www.inkscape.org/namespaces/inkscape"
   xmlns:sodipodi="http://sodipodi.sourceforge.net/DTD/sodipodi-0.dtd"
   xmlns="http://www.w3.org/2000/svg"
   xmlns:svg="http://www.w3.org/2000/svg">
  <sodipodi:namedview
     id="namedview2754"
     pagecolor="#ffffff"
     bordercolor="#666666"
     borderopacity="1.0"
     inkscape:pageshadow="2"
     inkscape:pageopacity="0.0"
     inkscape:pagecheckerboard="0"
     inkscape:document-units="mm"
     showgrid="false"
     inkscape:zoom="1.0519801"
     inkscape:cx="420.63535"
     inkscape:cy="322.72475"
     inkscape:window-width="1920"
     inkscape:window-height="1017"
     inkscape:window-x="1672"
     inkscape:window-y="-8"
     inkscape:window-maximized="1"
     inkscape:current-layer="layer1" />
  <defs
     id="defs2749">
    <filter
       style="color-interpolation-filters:sRGB;"
       inkscape:label="Invert"
       id="filter17313"
       x="0"
       y="0"
       width="1"
       height="1">
      <feColorMatrix
         values="1 0 0 0 0 0 1 0 0 0 0 0 1 0 0 -0.21 -0.72 -0.07 2 0 "
         result="fbSourceGraphic"
         id="feColorMatrix17311" />
      <feColorMatrix
         result="fbSourceGraphicAlpha"
         in="fbSourceGraphic"
         values="0 0 0 -1 0 0 0 0 -1 0 0 0 0 -1 0 0 0 0 1 0"
         id="feColorMatrix17341" />
      <feColorMatrix
         id="feColorMatrix17343"
         type="hueRotate"
         values="180"
         result="color1"
         in="fbSourceGraphic" />
      <feColorMatrix
         id="feColorMatrix17345"
         values="1 0 0 0 0 0 1 0 0 0 0 0 1 0 0 -0.21 -0.72 -0.07 2 0 "
         result="color2" />
    </filter>
    <filter
       style="color-interpolation-filters:sRGB;"
       inkscape:label="Invert"
       id="filter17317"
       x="0"
       y="0"
       width="1"
       height="1">
      <feColorMatrix
         values="1 0 0 0 0 0 1 0 0 0 0 0 1 0 0 -0.21 -0.72 -0.07 2 0 "
         result="fbSourceGraphic"
         id="feColorMatrix17315" />
      <feColorMatrix
         result="fbSourceGraphicAlpha"
         in="fbSourceGraphic"
         values="0 0 0 -1 0 0 0 0 -1 0 0 0 0 -1 0 0 0 0 1 0"
         id="feColorMatrix17347" />
      <feColorMatrix
         id="feColorMatrix17349"
         type="hueRotate"
         values="180"
         result="color1"
         in="fbSourceGraphic" />
      <feColorMatrix
         id="feColorMatrix17351"
         values="1 0 0 0 0 0 1 0 0 0 0 0 1 0 0 -0.21 -0.72 -0.07 2 0 "
         result="color2" />
    </filter>
    <filter
       style="color-interpolation-filters:sRGB;"
       inkscape:label="Invert"
       id="filter17321"
       x="0"
       y="0"
       width="1"
       height="1">
      <feColorMatrix
         values="1 0 0 0 0 0 1 0 0 0 0 0 1 0 0 -0.21 -0.72 -0.07 2 0 "
         result="fbSourceGraphic"
         id="feColorMatrix17319" />
      <feColorMatrix
         result="fbSourceGraphicAlpha"
         in="fbSourceGraphic"
         values="0 0 0 -1 0 0 0 0 -1 0 0 0 0 -1 0 0 0 0 1 0"
         id="feColorMatrix17353" />
      <feColorMatrix
         id="feColorMatrix17355"
         type="hueRotate"
         values="180"
         result="color1"
         in="fbSourceGraphic" />
      <feColorMatrix
         id="feColorMatrix17357"
         values="1 0 0 0 0 0 1 0 0 0 0 0 1 0 0 -0.21 -0.72 -0.07 2 0 "
         result="color2" />
    </filter>
  </defs>
  <g
     inkscape:label="Ebene 1"
     inkscape:groupmode="layer"
     id="layer1">
    <path
       style="fill:#cae0de;fill-opacity:1;stroke:#000000;stroke-width:0;stroke-linecap:round;stroke-linejoin:round;stroke-miterlimit:4;stroke-dasharray:none;stroke-opacity:1"
       d="m 27.510002,110.25526 c -1.331072,1.47319 1.438867,13.28399 9.493228,20.07491 8.054354,6.79092 24.797433,12.3101 30.844636,13.05621 9.988782,1.23235 27.519801,1.93015 41.486614,-2.71187 19.59793,-6.51362 35.62247,-30.78251 35.62247,-30.78251 0,0 -2.17433,-3.11231 -6.6753,-1.92785 -4.50094,1.18445 -4.92847,4.79202 -11.06455,6.04753 -5.97491,1.22252 -6.15592,-0.69944 -12.39345,-0.0637 -4.05846,0.4136 -10.61951,7.16495 -20.016256,7.32288 -9.396749,0.15797 -8.298477,-2.34569 -18.006178,-5.23314 -8.184417,-2.43437 -14.60317,-0.45153 -21.905813,-0.37736 -6.769849,0.0687 -13.310207,0.25017 -19.02313,-2.63852 -3.082928,-1.55888 -5.310466,-2.39031 -8.362271,-2.7665 z"
       id="path2881"
       sodipodi:nodetypes="cssscssscsssc" />
    <path
       style="fill:#d53930;stroke-width:0.66455"
       d="m 72.377544,89.618775 c -0.221851,-0.578146 -0.406911,-2.297671 -0.411263,-3.821168 -0.01058,-3.665541 -1.511726,-9.156163 -3.290541,-12.034338 -2.014763,-3.25996 -4.570851,-3.623417 -9.991663,-1.420752 -5.194972,2.110904 -6.677415,2.14144 -8.524232,0.175601 -4.355692,-4.636432 2.059489,-10.640908 8.96539,-8.39142 7.96222,2.593566 11.305901,5.672679 13.365086,13.916793 1.106885,3.482884 1.969149,12.626461 0.962137,12.626461 -0.36935,0 -0.853047,-0.473031 -1.074914,-1.051177 z"
       id="path16376"
       sodipodi:nodetypes="scsssscsss" />
    <path
       style="fill:#f79805;stroke-width:0.66455"
       d="M 73.667389,85.519684 C 72.524438,72.627328 68.815532,67.209888 59.015439,64.118212 c -4.771834,-1.505389 -5.648682,-2.383464 -5.648682,-5.656601 0,-2.282156 0.329496,-3.168263 1.476969,-3.971982 3.225427,-2.259178 9.951239,-0.515368 12.064849,3.128071 0.686178,1.182856 1.763448,3.053031 2.393933,4.15594 2.869956,5.020555 5.397352,13.546879 5.879946,23.081487 0.218981,4.32685 0.475856,4.98414 -0.273737,5.814825 -0.332618,0.368624 -0.952436,-1.891682 -1.241328,-5.150268 z"
       id="path16380"
       sodipodi:nodetypes="sssssssss" />
    <path
       style="fill:#f6ef03;stroke-width:0.66455"
       d="m 75.65831,89.839267 c -0.143842,-0.456879 -0.454431,-3.3726 -0.690273,-6.479366 -0.481703,-6.345089 -1.184941,-9.816066 -3.161719,-15.605305 -1.377026,-4.032852 -1.918517,-5.116265 -5.818223,-11.641273 -1.201455,-2.010267 -2.190214,-4.524012 -2.19724,-5.586102 -0.01707,-2.563632 2.281882,-4.382157 5.539666,-4.382157 5.211355,0 7.382456,5.684573 8.62957,22.59472 0.838316,11.367062 1.131,22.00913 -1.113698,21.930168 -0.509323,-0.01783 -1.044287,-0.373807 -1.188083,-0.830685 z"
       id="path16386"
       sodipodi:nodetypes="sssscssss" />
    <path
       style="fill:#d53930;stroke-width:0.264583;filter:url(#filter17321)"
       d="m 98.904535,94.318834 c 0.08833,-0.230184 0.162012,-0.914793 0.16374,-1.521355 0.0042,-1.459395 0.60188,-3.645426 1.310095,-4.791337 0.80215,-1.297916 1.81983,-1.442624 3.97806,-0.565655 2.06832,0.840434 2.65854,0.852592 3.39383,0.06991 1.73417,-1.84594 -0.81996,-4.236555 -3.56947,-3.340947 -3.17007,1.0326 -4.501311,2.258513 -5.321154,5.540812 -0.440696,1.386671 -0.783996,4.979925 -0.383061,5.027083 0.146042,0.01718 0.339631,-0.188331 0.42796,-0.418514 z"
       id="path16376-3"
       sodipodi:nodetypes="scsssscsss"
       transform="matrix(2.5116873,0,0,2.5116873,-164.03977,-147.30815)" />
    <path
       style="fill:#f79805;stroke-width:0.264583;filter:url(#filter17317)"
       d="m 98.391,92.686827 c 0.455054,-5.132946 1.93171,-7.289839 5.83351,-8.520755 1.89985,-0.599354 2.24895,-0.94895 2.24895,-2.252112 0,-0.908615 -0.13118,-1.261408 -0.58803,-1.5814 -1.28417,-0.899466 -3.96198,-0.205188 -4.80348,1.245406 -0.2732,0.470941 -0.7021,1.21553 -0.95312,1.654641 -1.142644,1.998877 -2.148898,5.393536 -2.341033,9.189637 -0.08719,1.722684 -0.189461,1.984375 0.10898,2.315104 0.132433,0.146761 0.379206,-0.753151 0.494223,-2.050521 z"
       id="path16380-0"
       sodipodi:nodetypes="sssssssss"
       transform="matrix(2.5116873,0,0,2.5116873,-164.03977,-147.30815)" />
    <path
       style="fill:#f6ef03;stroke-width:0.264583;filter:url(#filter17313)"
       d="m 97.598336,94.406619 c 0.05725,-0.181901 0.180925,-1.342761 0.274829,-2.579688 0.191783,-2.52622 0.471769,-3.908151 1.258797,-6.213074 0.548252,-1.605634 0.763838,-2.036983 2.316458,-4.634842 0.47834,-0.800365 0.87201,-1.801184 0.87481,-2.224043 0.007,-1.020681 -0.9085,-1.744707 -2.20555,-1.744707 -2.074845,0 -2.939245,2.263249 -3.43577,8.995833 -0.333765,4.525667 -0.277385,8.73125 0.443403,8.73125 0.202911,0 0.415772,-0.148828 0.473023,-0.330729 z"
       id="path16386-1"
       sodipodi:nodetypes="sssscssss"
       transform="matrix(2.5116873,0,0,2.5116873,-164.03977,-147.30815)" />
    <path
       id="path6016"
       style="fill:#0b3436;fill-opacity:1;stroke:#000000;stroke-width:0;stroke-linecap:round;stroke-linejoin:round;stroke-miterlimit:4;stroke-dasharray:none;stroke-opacity:1"
       d="m 180.24415,15.122552 c 0,0 -0.98754,1.764555 -4.65832,5.685018 -4.50264,4.808881 -10.43713,7.432288 -18.91505,8.291305 -8.00022,0.81062 -15.1424,-0.0074 -22.69986,-3.710836 -7.22917,-3.542521 -10.58088,-10.186312 -10.58088,-10.186312 0,0 -1.26299,9.553818 0.15836,18.160918 1.42136,8.607107 8.36946,14.688283 13.34421,17.373066 4.97476,2.684786 12.39803,2.684161 12.39803,2.684161 0,0 0.84721,10.52458 0.5763,12.401917 -0.74891,5.189468 -4.36041,14.073194 -12.28771,18.06747 -14.33276,7.221736 -18.99808,3.609938 -47.534834,2.04947 -24.32812,-1.330353 -35.18125,4.566425 -44.401582,9.652855 -11.24883,6.205426 -18.132809,14.663676 -18.132809,14.663676 3.05181,0.37619 5.27891,1.20892 8.36184,2.76779 5.712922,2.88869 12.254214,2.70756 19.024057,2.63873 7.302655,-0.0741 13.721108,-2.05798 21.90551,0.37641 6.600483,1.96324 8.249463,3.72565 11.554358,4.61812 l -0.351747,-0.006 c 0,0 -3.070896,14.85246 -0.167442,23.73041 2.437372,7.45271 10.498044,16.47184 18.873509,20.54786 8.17992,3.98085 17.19783,5.63959 17.19783,5.63959 0,0 -13.90378,-20.96412 -16.5281,-25.85257 -2.84765,-5.30443 -4.91383,-8.15209 -8.375668,-23.84205 v 0 c 7.449828,-1.48316 12.315248,-6.56745 15.819408,-6.92457 6.23753,-0.63565 6.41924,1.28739 12.39412,0.065 6.1361,-1.25552 6.56281,-4.86399 11.06375,-6.04845 4.50097,-1.18446 6.67552,1.92718 6.67552,1.92718 0,0 5.16721,-8.32872 8.17432,-24.26361 3.36837,-17.849214 0.81772,-32.365697 0.81772,-32.365697 0,0 4.71458,0.948467 12.08132,-2.211703 7.6364,-3.275855 10.44505,-8.039687 13.03012,-15.55594 2.89854,-8.427685 1.18372,-20.372629 1.18372,-20.372623 z"
       sodipodi:nodetypes="cssscsscsssscsssccsscsccssscscsscc" />
    <ellipse
       style="fill:#cae0de;fill-opacity:1;stroke-width:1.00468;stroke-linecap:round;stroke-linejoin:round"
       id="path5788"
       cx="81.736481"
       cy="109.16817"
       rx="2.8821955"
       ry="2.724267" />
  </g>
</svg>
